<?xml version="1.0" encoding="UTF-8"?>
<svg xmlns="http://www.w3.org/2000/svg" xmlns:xlink="http://www.w3.org/1999/xlink" width="144px" height="144px" viewBox="0 0 144 144" version="1.1">
<g id="surface1">
<path style=" stroke:none;fill-rule:nonzero;fill:rgb(76.078433%,35.294119%,1.176471%);fill-opacity:1;" d="M 1 131 C 1 92.644531 1 54.292969 1.320312 15.339844 C 4.238281 7.871094 9.441406 3.730469 16 1 C 53.6875 1 91.375 1 129.6875 1.320312 C 137.976562 3.59375 142.066406 9.207031 145 16 C 145 54.019531 145 92.042969 144.695312 130.691406 C 141.914062 138.320312 136.691406 142.433594 130 145 C 91.980469 145 53.957031 145 15.3125 144.691406 C 7.972656 142.121094 4.179688 136.875 1 131 M 106.726562 105.46875 C 106.726562 95.570312 106.726562 85.671875 106.726562 75.214844 C 111.148438 75.214844 114.707031 75.214844 118.054688 75.214844 C 119.632812 67.910156 118.09375 62.828125 112.015625 58.464844 C 103.109375 52.074219 94.976562 44.609375 86.515625 37.601562 C 82.0625 33.914062 77.605469 30.230469 72.996094 26.417969 C 59.300781 37.753906 45.980469 48.78125 32.652344 59.800781 C 26.914062 64.550781 26.035156 67.664062 28.5 75.828125 C 31.886719 75.828125 35.445312 75.828125 39.003906 75.828125 C 39.003906 88.808594 39.003906 101.222656 39.003906 114.144531 C 35.164062 114.144531 31.59375 114.144531 27.894531 114.144531 C 27.894531 116.195312 27.894531 117.730469 27.894531 119.328125 C 58.179688 119.328125 88.066406 119.328125 118.117188 119.328125 C 118.117188 117.484375 118.117188 115.945312 118.117188 113.902344 C 114.160156 113.902344 110.585938 113.902344 106.726562 113.902344 C 106.726562 111.082031 106.726562 108.769531 106.726562 105.46875 Z M 106.726562 105.46875 "/>
<path style=" stroke:none;fill-rule:nonzero;fill:rgb(99.215686%,97.647059%,96.470588%);fill-opacity:1;" d="M 145 15.527344 C 142.066406 9.207031 137.976562 3.59375 130.15625 1.320312 C 134.925781 1 139.847656 1 145 1 C 145 5.683594 145 10.367188 145 15.527344 Z M 145 15.527344 "/>
<path style=" stroke:none;fill-rule:nonzero;fill:rgb(99.215686%,98.039216%,96.470588%);fill-opacity:1;" d="M 15.527344 1 C 9.441406 3.730469 4.238281 7.871094 1.320312 14.871094 C 1 10.40625 1 5.8125 1 1 C 5.683594 1 10.367188 1 15.527344 1 Z M 15.527344 1 "/>
<path style=" stroke:none;fill-rule:nonzero;fill:rgb(98.823529%,96.470588%,94.509804%);fill-opacity:1;" d="M 130.472656 145 C 136.691406 142.433594 141.914062 138.320312 144.695312 131.160156 C 145 135.59375 145 140.1875 145 145 C 140.316406 145 135.632812 145 130.472656 145 Z M 130.472656 145 "/>
<path style=" stroke:none;fill-rule:nonzero;fill:rgb(98.823529%,96.862745%,94.901961%);fill-opacity:1;" d="M 1 131.472656 C 4.179688 136.875 7.972656 142.121094 14.84375 144.691406 C 10.410156 145 5.820312 145 1 145 C 1 140.652344 1 136.300781 1 131.472656 Z M 1 131.472656 "/>
<path style=" stroke:none;fill-rule:nonzero;fill:rgb(98.039216%,94.901961%,92.156863%);fill-opacity:1;" d="M 106.726562 105.960938 C 106.726562 108.769531 106.726562 111.082031 106.726562 113.902344 C 110.585938 113.902344 114.160156 113.902344 118.117188 113.902344 C 118.117188 115.945312 118.117188 117.484375 118.117188 119.328125 C 88.066406 119.328125 58.179688 119.328125 27.894531 119.328125 C 27.894531 117.730469 27.894531 116.195312 27.894531 114.144531 C 31.59375 114.144531 35.164062 114.144531 39.003906 114.144531 C 39.003906 101.222656 39.003906 88.808594 39.003906 75.828125 C 35.445312 75.828125 31.886719 75.828125 28.5 75.828125 C 26.035156 67.664062 26.914062 64.550781 32.652344 59.800781 C 45.980469 48.78125 59.300781 37.753906 72.996094 26.417969 C 77.605469 30.230469 82.0625 33.914062 86.515625 37.601562 C 94.976562 44.609375 103.109375 52.074219 112.015625 58.464844 C 118.09375 62.828125 119.632812 67.910156 118.054688 75.214844 C 114.707031 75.214844 111.148438 75.214844 106.726562 75.214844 C 106.726562 85.671875 106.726562 95.570312 106.726562 105.960938 M 101.609375 100.507812 C 101.609375 96.257812 101.609375 92.003906 101.609375 87.675781 C 88.550781 87.675781 76.296875 87.675781 63.792969 87.675781 C 63.792969 96.542969 63.792969 105.101562 63.792969 113.777344 C 76.480469 113.777344 88.847656 113.777344 101.609375 113.777344 C 101.609375 109.441406 101.609375 105.46875 101.609375 100.507812 M 93.917969 65.585938 C 87.011719 59.375 80.109375 53.164062 72.628906 46.433594 C 69.433594 49.953125 64.480469 52.902344 63.960938 56.496094 C 62.714844 65.078125 63.558594 73.960938 63.558594 82.871094 C 76.503906 82.871094 88.890625 82.871094 100.898438 82.871094 C 103.6875 75.101562 100.195312 70.117188 93.917969 65.585938 M 73.921875 40.679688 C 83.710938 49.46875 93.597656 58.15625 103.226562 67.113281 C 106.246094 69.917969 109.246094 70.90625 113.722656 69.460938 C 113.078125 67.933594 112.628906 66.445312 111.847656 65.164062 C 111.355469 64.355469 110.363281 63.851562 109.59375 63.214844 C 97.441406 53.148438 85.292969 43.085938 72.988281 32.894531 C 59.859375 43.785156 47.023438 54.363281 34.316406 65.09375 C 33.222656 66.015625 32.980469 67.941406 32.339844 69.402344 C 32.828125 69.96875 33.316406 70.535156 33.804688 71.101562 C 36.707031 69.738281 40.035156 68.886719 42.4375 66.914062 C 49.117188 61.417969 55.367188 55.394531 61.886719 49.699219 C 65.597656 46.457031 69.503906 43.441406 73.921875 40.679688 M 46.839844 114.136719 C 50.589844 114.136719 54.34375 114.136719 57.953125 114.136719 C 57.953125 104.851562 57.953125 96.304688 57.953125 87.722656 C 53.3125 87.722656 49.089844 87.722656 44.445312 87.722656 C 44.445312 96.175781 44.414062 104.28125 44.507812 112.382812 C 44.515625 112.957031 45.425781 113.519531 46.839844 114.136719 M 53.460938 83.214844 C 55.035156 83.144531 56.609375 83.074219 58.367188 82.996094 C 58.367188 78.84375 58.367188 75.347656 58.367188 71.851562 C 58.367188 68.285156 58.367188 64.71875 58.367188 60.722656 C 45.273438 68.945312 42.945312 72.945312 45.164062 83.214844 C 47.53125 83.214844 50 83.214844 53.460938 83.214844 Z M 53.460938 83.214844 "/>
<path style=" stroke:none;fill-rule:nonzero;fill:rgb(76.862746%,37.64706%,4.705882%);fill-opacity:1;" d="M 101.609375 101.003906 C 101.609375 105.46875 101.609375 109.441406 101.609375 113.777344 C 88.847656 113.777344 76.480469 113.777344 63.792969 113.777344 C 63.792969 105.101562 63.792969 96.542969 63.792969 87.675781 C 76.296875 87.675781 88.550781 87.675781 101.609375 87.675781 C 101.609375 92.003906 101.609375 96.257812 101.609375 101.003906 Z M 101.609375 101.003906 "/>
<path style=" stroke:none;fill-rule:nonzero;fill:rgb(76.47059%,36.862746%,3.137255%);fill-opacity:1;" d="M 94.183594 65.828125 C 100.195312 70.117188 103.6875 75.101562 100.898438 82.871094 C 88.890625 82.871094 76.503906 82.871094 63.558594 82.871094 C 63.558594 73.960938 62.714844 65.078125 63.960938 56.496094 C 64.480469 52.902344 69.433594 49.953125 72.628906 46.433594 C 80.109375 53.164062 87.011719 59.375 94.183594 65.828125 Z M 94.183594 65.828125 "/>
<path style=" stroke:none;fill-rule:nonzero;fill:rgb(77.254903%,38.039216%,5.490196%);fill-opacity:1;" d="M 73.621094 40.503906 C 69.503906 43.441406 65.597656 46.457031 61.886719 49.699219 C 55.367188 55.394531 49.117188 61.417969 42.4375 66.914062 C 40.035156 68.886719 36.707031 69.738281 33.804688 71.101562 C 33.316406 70.535156 32.828125 69.96875 32.339844 69.402344 C 32.980469 67.941406 33.222656 66.015625 34.316406 65.09375 C 47.023438 54.363281 59.859375 43.785156 72.988281 32.894531 C 85.292969 43.085938 97.441406 53.148438 109.59375 63.214844 C 110.363281 63.851562 111.355469 64.355469 111.847656 65.164062 C 112.628906 66.445312 113.078125 67.933594 113.722656 69.460938 C 109.246094 70.90625 106.246094 69.917969 103.226562 67.113281 C 93.597656 58.15625 83.710938 49.46875 73.621094 40.503906 Z M 73.621094 40.503906 "/>
<path style=" stroke:none;fill-rule:nonzero;fill:rgb(77.254903%,38.039216%,5.490196%);fill-opacity:1;" d="M 46.378906 114.113281 C 45.425781 113.519531 44.515625 112.957031 44.507812 112.382812 C 44.414062 104.28125 44.445312 96.175781 44.445312 87.722656 C 49.089844 87.722656 53.3125 87.722656 57.953125 87.722656 C 57.953125 96.304688 57.953125 104.851562 57.953125 114.136719 C 54.34375 114.136719 50.589844 114.136719 46.378906 114.113281 Z M 46.378906 114.113281 "/>
<path style=" stroke:none;fill-rule:nonzero;fill:rgb(76.862746%,37.64706%,4.313726%);fill-opacity:1;" d="M 52.964844 83.214844 C 50 83.214844 47.53125 83.214844 45.164062 83.214844 C 42.945312 72.945312 45.273438 68.945312 58.367188 60.722656 C 58.367188 64.71875 58.367188 68.285156 58.367188 71.851562 C 58.367188 75.347656 58.367188 78.84375 58.367188 82.996094 C 56.609375 83.074219 55.035156 83.144531 52.964844 83.214844 Z M 52.964844 83.214844 "/>
</g>
</svg>
