<svg version="1.1" id="Layer_1" xmlns="http://www.w3.org/2000/svg" xmlns:xlink="http://www.w3.org/1999/xlink" x="0px" y="0px"
	 width="100%" viewBox="0 0 144 144" enable-background="new 0 0 144 144" xml:space="preserve">
<path fill="#C25A03" opacity="1.000000" stroke="none" 
	d="
M1.000000,131.000000 
	C1.000000,92.645775 1.000000,54.291542 1.321975,15.338808 
	C4.236915,7.869569 9.443187,3.729253 16.000000,1.000000 
	C53.687561,1.000000 91.375122,1.000000 129.686020,1.320743 
	C137.975937,3.593887 142.064911,9.206665 145.000000,16.000000 
	C145.000000,54.020893 145.000000,92.041786 144.693558,130.690308 
	C141.913559,138.320435 136.690567,142.431824 130.000000,145.000000 
	C91.979103,145.000000 53.958210,145.000000 15.311432,144.692673 
	C7.972717,142.122787 4.177746,136.876923 1.000000,131.000000 
M106.728088,105.468872 
	C106.728088,95.570534 106.728088,85.672195 106.728088,75.216225 
	C111.149307,75.216225 114.708748,75.216225 118.053192,75.216225 
	C119.632454,67.909637 118.092796,62.826447 112.014442,58.465332 
	C103.108871,52.075726 94.976891,44.608051 86.514015,37.601276 
	C82.061150,33.914570 77.605652,30.231035 72.996521,26.417988 
	C59.299355,37.752666 45.978565,48.779938 32.652874,59.801281 
	C26.912642,64.548882 26.035143,67.662598 28.500505,75.826752 
	C31.886745,75.826752 35.444824,75.826752 39.003166,75.826752 
	C39.003166,88.809921 39.003166,101.222725 39.003166,114.142838 
	C35.165474,114.142838 31.594292,114.142838 27.894218,114.142838 
	C27.894218,116.194077 27.894218,117.731026 27.894218,119.326340 
	C58.181480,119.326340 88.065750,119.326340 118.118355,119.326340 
	C118.118355,117.484024 118.118355,115.944923 118.118355,113.900726 
	C114.159523,113.900726 110.584709,113.900726 106.728416,113.900726 
	C106.728416,111.082680 106.728416,108.769646 106.728088,105.468872 
z"/>
<path fill="#FDF9F6" opacity="1.000000" stroke="none" 
	d="
M145.000000,15.527336 
	C142.064911,9.206665 137.975937,3.593887 130.154678,1.320743 
	C134.924515,1.000000 139.849045,1.000000 145.000000,1.000000 
	C145.000000,5.683316 145.000000,10.368995 145.000000,15.527336 
z"/>
<path fill="#FDFAF6" opacity="1.000000" stroke="none" 
	d="
M15.527336,1.000000 
	C9.443187,3.729253 4.236915,7.869569 1.321975,14.870152 
	C1.000000,10.406251 1.000000,5.812502 1.000000,1.000000 
	C5.683425,1.000000 10.369049,1.000000 15.527336,1.000000 
z"/>
<path fill="#FCF6F1" opacity="1.000000" stroke="none" 
	d="
M130.472656,145.000000 
	C136.690567,142.431824 141.913559,138.320435 144.693558,131.158966 
	C145.000000,135.593750 145.000000,140.187500 145.000000,145.000000 
	C140.316574,145.000000 135.630936,145.000000 130.472656,145.000000 
z"/>
<path fill="#FCF7F2" opacity="1.000000" stroke="none" 
	d="
M1.000000,131.474121 
	C4.177746,136.876923 7.972717,142.122787 14.842775,144.692673 
	C10.409401,145.000000 5.818802,145.000000 1.000000,145.000000 
	C1.000000,140.651093 1.000000,136.299683 1.000000,131.474121 
z"/>
<path fill="#FAF2EB" opacity="1.000000" stroke="none" 
	d="
M106.728256,105.962746 
	C106.728416,108.769646 106.728416,111.082680 106.728416,113.900726 
	C110.584709,113.900726 114.159523,113.900726 118.118355,113.900726 
	C118.118355,115.944923 118.118355,117.484024 118.118355,119.326340 
	C88.065750,119.326340 58.181480,119.326340 27.894218,119.326340 
	C27.894218,117.731026 27.894218,116.194077 27.894218,114.142838 
	C31.594292,114.142838 35.165474,114.142838 39.003166,114.142838 
	C39.003166,101.222725 39.003166,88.809921 39.003166,75.826752 
	C35.444824,75.826752 31.886745,75.826752 28.500505,75.826752 
	C26.035143,67.662598 26.912642,64.548882 32.652874,59.801281 
	C45.978565,48.779938 59.299355,37.752666 72.996521,26.417988 
	C77.605652,30.231035 82.061150,33.914570 86.514015,37.601276 
	C94.976891,44.608051 103.108871,52.075726 112.014442,58.465332 
	C118.092796,62.826447 119.632454,67.909637 118.053192,75.216225 
	C114.708748,75.216225 111.149307,75.216225 106.728088,75.216225 
	C106.728088,85.672195 106.728088,95.570534 106.728256,105.962746 
M101.609901,100.509270 
	C101.609901,96.256096 101.609901,92.002930 101.609901,87.677460 
	C88.552216,87.677460 76.298798,87.677460 63.794556,87.677460 
	C63.794556,96.542999 63.794556,105.102943 63.794556,113.775833 
	C76.479156,113.775833 88.847229,113.775833 101.610245,113.775833 
	C101.610245,109.440315 101.610245,105.468216 101.609901,100.509270 
M93.917213,65.585426 
	C87.012733,59.374371 80.108246,53.163311 72.627472,46.433838 
	C69.435417,49.954975 64.482399,52.903564 63.961193,56.495266 
	C62.715908,65.076683 63.559246,73.961197 63.559246,82.870483 
	C76.503555,82.870483 88.888947,82.870483 100.898026,82.870483 
	C103.686272,75.101601 100.194038,70.118401 93.917213,65.585426 
M73.921532,40.681297 
	C83.709801,49.470631 93.596268,58.154350 103.228455,67.111526 
	C106.247566,69.919052 109.245598,70.904678 113.721397,69.460854 
	C113.077927,67.932945 112.629028,66.445847 111.846405,65.162216 
	C111.354515,64.355446 110.363052,63.852657 109.593979,63.215580 
	C97.443253,53.150249 85.292252,43.085255 72.989548,32.894478 
	C59.861031,43.783451 47.024448,54.362026 34.315872,65.092201 
	C33.223362,66.014648 32.979656,67.942398 32.341652,69.403152 
	C32.829166,69.968666 33.316677,70.534172 33.804188,71.099678 
	C36.708675,69.736588 40.035545,68.887093 42.436901,66.912224 
	C49.118996,61.416882 55.365982,55.396111 61.886013,49.698662 
	C65.596031,46.456711 69.504234,43.441559 73.921532,40.681297 
M46.840488,114.136284 
	C50.591595,114.136284 54.342697,114.136284 57.952087,114.136284 
	C57.952087,104.849831 57.952087,96.306023 57.952087,87.723816 
	C53.311974,87.723816 49.088940,87.723816 44.445053,87.723816 
	C44.445053,96.174690 44.415356,104.280434 44.508289,112.384758 
	C44.514862,112.957848 45.424618,113.520584 46.840488,114.136284 
M53.460369,83.215179 
	C55.034927,83.145020 56.609482,83.074860 58.366940,82.996544 
	C58.366940,78.841972 58.366936,75.346970 58.366936,71.851967 
	C58.366936,68.284592 58.366940,64.717216 58.366940,60.723316 
	C45.273758,68.943733 42.945396,72.945465 45.164043,83.214584 
	C47.531937,83.214584 50.000767,83.214584 53.460369,83.215179 
z"/>
<path fill="#C4600C" opacity="1.000000" stroke="none" 
	d="
M101.610077,101.002701 
	C101.610245,105.468216 101.610245,109.440315 101.610245,113.775833 
	C88.847229,113.775833 76.479156,113.775833 63.794556,113.775833 
	C63.794556,105.102943 63.794556,96.542999 63.794556,87.677460 
	C76.298798,87.677460 88.552216,87.677460 101.609901,87.677460 
	C101.609901,92.002930 101.609901,96.256096 101.610077,101.002701 
z"/>
<path fill="#C35E08" opacity="1.000000" stroke="none" 
	d="
M94.181816,65.827789 
	C100.194038,70.118401 103.686272,75.101601 100.898026,82.870483 
	C88.888947,82.870483 76.503555,82.870483 63.559246,82.870483 
	C63.559246,73.961197 62.715908,65.076683 63.961193,56.495266 
	C64.482399,52.903564 69.435417,49.954975 72.627472,46.433838 
	C80.108246,53.163311 87.012733,59.374371 94.181816,65.827789 
z"/>
<path fill="#C5610E" opacity="1.000000" stroke="none" 
	d="
M73.622360,40.502785 
	C69.504234,43.441559 65.596031,46.456711 61.886013,49.698662 
	C55.365982,55.396111 49.118996,61.416882 42.436901,66.912224 
	C40.035545,68.887093 36.708675,69.736588 33.804188,71.099678 
	C33.316677,70.534172 32.829166,69.968666 32.341652,69.403152 
	C32.979656,67.942398 33.223362,66.014648 34.315872,65.092201 
	C47.024448,54.362026 59.861031,43.783451 72.989548,32.894478 
	C85.292252,43.085255 97.443253,53.150249 109.593979,63.215580 
	C110.363052,63.852657 111.354515,64.355446 111.846405,65.162216 
	C112.629028,66.445847 113.077927,67.932945 113.721397,69.460854 
	C109.245598,70.904678 106.247566,69.919052 103.228455,67.111526 
	C93.596268,58.154350 83.709801,49.470631 73.622360,40.502785 
z"/>
<path fill="#C5610E" opacity="1.000000" stroke="none" 
	d="
M46.377445,114.112213 
	C45.424618,113.520584 44.514862,112.957848 44.508289,112.384758 
	C44.415356,104.280434 44.445053,96.174690 44.445053,87.723816 
	C49.088940,87.723816 53.311974,87.723816 57.952087,87.723816 
	C57.952087,96.306023 57.952087,104.849831 57.952087,114.136284 
	C54.342697,114.136284 50.591595,114.136284 46.377445,114.112213 
z"/>
<path fill="#C4600B" opacity="1.000000" stroke="none" 
	d="
M52.964985,83.214882 
	C50.000767,83.214584 47.531937,83.214584 45.164043,83.214584 
	C42.945396,72.945465 45.273758,68.943733 58.366940,60.723316 
	C58.366940,64.717216 58.366936,68.284592 58.366936,71.851967 
	C58.366936,75.346970 58.366940,78.841972 58.366940,82.996544 
	C56.609482,83.074860 55.034927,83.145020 52.964985,83.214882 
z"/>
</svg>